<mxfile host="65bd71144e">
    <diagram id="pRiZTLNJBgBPn-G382EK" name="Page-1">
        <mxGraphModel dx="912" dy="771" grid="1" gridSize="10" guides="1" tooltips="1" connect="1" arrows="1" fold="1" page="1" pageScale="1" pageWidth="850" pageHeight="1100" math="0" shadow="0">
            <root>
                <mxCell id="0"/>
                <mxCell id="1" parent="0"/>
                <mxCell id="2" value="" style="rounded=0;whiteSpace=wrap;html=1;" parent="1" vertex="1">
                    <mxGeometry x="100" y="250" width="150" height="550" as="geometry"/>
                </mxCell>
                <mxCell id="3" value="" style="rounded=0;whiteSpace=wrap;html=1;" parent="1" vertex="1">
                    <mxGeometry x="400" y="250" width="150" height="550" as="geometry"/>
                </mxCell>
                <mxCell id="4" value="" style="rounded=0;whiteSpace=wrap;html=1;" parent="1" vertex="1">
                    <mxGeometry x="680" y="250" width="150" height="550" as="geometry"/>
                </mxCell>
                <mxCell id="80" style="edgeStyle=none;html=1;exitX=1;exitY=0.5;exitDx=0;exitDy=0;entryX=0;entryY=0.5;entryDx=0;entryDy=0;endArrow=none;endFill=0;" edge="1" parent="1" source="30" target="15">
                    <mxGeometry relative="1" as="geometry"/>
                </mxCell>
                <mxCell id="79" style="edgeStyle=none;html=1;exitX=1;exitY=0.5;exitDx=0;exitDy=0;entryX=0;entryY=0.5;entryDx=0;entryDy=0;endArrow=none;endFill=0;" edge="1" parent="1" source="31" target="30">
                    <mxGeometry relative="1" as="geometry"/>
                </mxCell>
                <mxCell id="81" style="edgeStyle=none;html=1;exitX=1;exitY=0.5;exitDx=0;exitDy=0;entryX=0;entryY=0.5;entryDx=0;entryDy=0;endArrow=none;endFill=0;" edge="1" parent="1" source="32" target="16">
                    <mxGeometry relative="1" as="geometry"/>
                </mxCell>
                <mxCell id="78" style="edgeStyle=none;html=1;exitX=1;exitY=0.5;exitDx=0;exitDy=0;endArrow=none;endFill=0;strokeWidth=3;" edge="1" parent="1" source="70" target="68">
                    <mxGeometry relative="1" as="geometry"/>
                </mxCell>
                <mxCell id="77" style="edgeStyle=none;html=1;exitX=1;exitY=0.5;exitDx=0;exitDy=0;entryX=0;entryY=0.5;entryDx=0;entryDy=0;endArrow=none;endFill=0;strokeWidth=3;" edge="1" parent="1" source="71" target="69">
                    <mxGeometry relative="1" as="geometry"/>
                </mxCell>
                <mxCell id="76" style="edgeStyle=none;html=1;exitX=1;exitY=0.5;exitDx=0;exitDy=0;entryX=0;entryY=0.5;entryDx=0;entryDy=0;endArrow=none;endFill=0;strokeWidth=3;" edge="1" parent="1" source="72" target="71">
                    <mxGeometry relative="1" as="geometry"/>
                </mxCell>
                <mxCell id="75" style="edgeStyle=none;html=1;exitX=1;exitY=0.5;exitDx=0;exitDy=0;entryX=0;entryY=0.5;entryDx=0;entryDy=0;endArrow=none;endFill=0;" edge="1" parent="1" source="73" target="74">
                    <mxGeometry relative="1" as="geometry"/>
                </mxCell>
                <mxCell id="5" value="Kernel Mode" style="text;strokeColor=none;fillColor=none;html=1;fontSize=24;fontStyle=1;verticalAlign=middle;align=center;" parent="1" vertex="1">
                    <mxGeometry x="425" y="180" width="100" height="40" as="geometry"/>
                </mxCell>
                <mxCell id="6" value="CPU" style="text;strokeColor=none;fillColor=none;html=1;fontSize=24;fontStyle=1;verticalAlign=middle;align=center;" parent="1" vertex="1">
                    <mxGeometry x="705" y="260" width="100" height="40" as="geometry"/>
                </mxCell>
                <mxCell id="7" value="RAM" style="text;strokeColor=none;fillColor=none;html=1;fontSize=24;fontStyle=1;verticalAlign=middle;align=center;" parent="1" vertex="1">
                    <mxGeometry x="425" y="260" width="100" height="40" as="geometry"/>
                </mxCell>
                <mxCell id="8" value="GPU" style="text;strokeColor=none;fillColor=none;html=1;fontSize=24;fontStyle=1;verticalAlign=middle;align=center;" parent="1" vertex="1">
                    <mxGeometry x="120" y="260" width="100" height="40" as="geometry"/>
                </mxCell>
                <mxCell id="9" value="&lt;b&gt;GPU Page Table&lt;/b&gt;" style="rounded=0;whiteSpace=wrap;html=1;direction=east;horizontal=0;" parent="1" vertex="1">
                    <mxGeometry x="300" y="250" width="50" height="550" as="geometry"/>
                </mxCell>
                <mxCell id="10" value="&lt;b&gt;CPU Page Table&lt;/b&gt;" style="rounded=0;whiteSpace=wrap;html=1;horizontal=0;" parent="1" vertex="1">
                    <mxGeometry x="590" y="250" width="50" height="550" as="geometry"/>
                </mxCell>
                <mxCell id="15" value="GPU Commands" style="rounded=0;whiteSpace=wrap;html=1;" parent="1" vertex="1">
                    <mxGeometry x="695" y="610" width="120" height="50" as="geometry"/>
                </mxCell>
                <mxCell id="16" value="Linux Kernel" style="rounded=0;whiteSpace=wrap;html=1;" parent="1" vertex="1">
                    <mxGeometry x="695" y="680" width="120" height="50" as="geometry"/>
                </mxCell>
                <mxCell id="17" value="&lt;p style=&quot;font-size: 12px;&quot;&gt;&lt;font style=&quot;font-size: 12px;&quot;&gt;CPU&lt;br&gt; &lt;/font&gt;&lt;font style=&quot;font-size: 12px;&quot;&gt;Virtual Memory&lt;/font&gt;&lt;/p&gt;" style="text;strokeColor=none;fillColor=none;html=1;fontSize=24;fontStyle=1;verticalAlign=middle;align=center;" parent="1" vertex="1">
                    <mxGeometry x="705" y="750" width="100" height="40" as="geometry"/>
                </mxCell>
                <mxCell id="18" value="&lt;p style=&quot;font-size: 12px;&quot;&gt;&lt;font style=&quot;font-size: 12px;&quot;&gt;GPU&lt;br&gt; &lt;/font&gt;&lt;font style=&quot;font-size: 12px;&quot;&gt;Virtual Memory&lt;/font&gt;&lt;/p&gt;" style="text;strokeColor=none;fillColor=none;html=1;fontSize=24;fontStyle=1;verticalAlign=middle;align=center;" parent="1" vertex="1">
                    <mxGeometry x="120" y="750" width="100" height="40" as="geometry"/>
                </mxCell>
                <mxCell id="20" value="&lt;p style=&quot;font-size: 12px;&quot;&gt;&lt;font style=&quot;font-size: 12px;&quot;&gt;Physical&lt;br&gt;&lt;/font&gt;&lt;font style=&quot;font-size: 12px;&quot;&gt;Address Space&lt;/font&gt;&lt;/p&gt;" style="text;strokeColor=none;fillColor=none;html=1;fontSize=24;fontStyle=1;verticalAlign=middle;align=center;" parent="1" vertex="1">
                    <mxGeometry x="425" y="750" width="100" height="40" as="geometry"/>
                </mxCell>
                <mxCell id="30" value="GPU Commands" style="rounded=0;whiteSpace=wrap;html=1;" parent="1" vertex="1">
                    <mxGeometry x="415" y="610" width="120" height="50" as="geometry"/>
                </mxCell>
                <mxCell id="31" value="GPU Commands" style="rounded=0;whiteSpace=wrap;html=1;" parent="1" vertex="1">
                    <mxGeometry x="115" y="610" width="120" height="50" as="geometry"/>
                </mxCell>
                <mxCell id="32" value="Linux Kernel" style="rounded=0;whiteSpace=wrap;html=1;" parent="1" vertex="1">
                    <mxGeometry x="415" y="680" width="120" height="50" as="geometry"/>
                </mxCell>
                <mxCell id="68" value="CPU Page Tables" style="rounded=0;whiteSpace=wrap;html=1;" vertex="1" parent="1">
                    <mxGeometry x="695" y="320" width="120" height="50" as="geometry"/>
                </mxCell>
                <mxCell id="69" value="GPU Page Tables" style="rounded=0;whiteSpace=wrap;html=1;" vertex="1" parent="1">
                    <mxGeometry x="695" y="381" width="120" height="50" as="geometry"/>
                </mxCell>
                <mxCell id="70" value="CPU Page Tables" style="rounded=0;whiteSpace=wrap;html=1;" vertex="1" parent="1">
                    <mxGeometry x="415" y="320" width="120" height="50" as="geometry"/>
                </mxCell>
                <mxCell id="71" value="GPU Page Tables" style="rounded=0;whiteSpace=wrap;html=1;" vertex="1" parent="1">
                    <mxGeometry x="415" y="381" width="120" height="50" as="geometry"/>
                </mxCell>
                <mxCell id="72" value="GPU Page Tables" style="rounded=0;whiteSpace=wrap;html=1;" vertex="1" parent="1">
                    <mxGeometry x="115" y="381" width="120" height="50" as="geometry"/>
                </mxCell>
                <mxCell id="73" value="GPU Firmware" style="rounded=0;whiteSpace=wrap;html=1;" vertex="1" parent="1">
                    <mxGeometry x="115" y="500" width="120" height="50" as="geometry"/>
                </mxCell>
                <mxCell id="74" value="GPU Firmware" style="rounded=0;whiteSpace=wrap;html=1;" vertex="1" parent="1">
                    <mxGeometry x="415" y="500" width="120" height="50" as="geometry"/>
                </mxCell>
            </root>
        </mxGraphModel>
    </diagram>
</mxfile>